# xmcd
#
# Track frame offsets:
#	150
#	20680
#	35307
#	54362
#	71665
#	92322
#	109885
#	129507
#	146245
#	161002
#	182982
#	198717
#
# Disc length: 2908 seconds
#
# Revision: 2
# Processed by: cddbd v1.4b41PL2 Copyright (c) Steve Scherf et al.
# Submitted via: EZCDDA 4.3.2
#
DISCID=ac0b5a0c
DTITLE=Darrell Nulisch - The Whole Truth
DYEAR=1900
DGENRE=
TTITLE0=Leaving on the Morning Train
TTITLE1=Stop Thinking Take (Start Thinking Give)
TTITLE2=There It Is
TTITLE3=I'm A Lover
TTITLE4=At-Cha-Mama-Nims
TTITLE5=Telephone Blues
TTITLE6=One Night Lover
TTITLE7=Like Reed
TTITLE8=Love Me Like You Mean It
TTITLE9=There's A Sad Story Here
TTITLE10=Wait For Me
TTITLE11=Lyla Tov (Good Night)
EXTD=
EXTT0=
EXTT1=
EXTT2=
EXTT3=
EXTT4=
EXTT5=
EXTT6=
EXTT7=
EXTT8=
EXTT9=
EXTT10=
EXTT11=
PLAYORDER=
